<svg width="200" height="200" viewBox="0 0 200 200" fill="none" xmlns="http://www.w3.org/2000/svg">
  <!-- Diversity represented by connected figures -->
  <!-- Figure 1 -->
  <circle cx="60" cy="70" r="18" fill="#FFE5E5" stroke="#FF9999" stroke-width="3"/>
  <rect x="48" y="88" width="24" height="30" rx="12" fill="#FFE5E5" stroke="#FF9999" stroke-width="2"/>
  <rect x="42" y="105" width="36" height="20" rx="6" fill="#FFE5E5" stroke="#FF9999" stroke-width="2"/>
  
  <!-- Figure 2 -->
  <circle cx="100" cy="60" r="20" fill="#E5F3FF" stroke="#99CCFF" stroke-width="3"/>
  <rect x="86" y="80" width="28" height="35" rx="14" fill="#E5F3FF" stroke="#99CCFF" stroke-width="2"/>
  <rect x="78" y="100" width="44" height="25" rx="8" fill="#E5F3FF" stroke="#99CCFF" stroke-width="2"/>
  
  <!-- Figure 3 -->
  <circle cx="140" cy="75" r="16" fill="#F0E5FF" stroke="#CC99FF" stroke-width="3"/>
  <rect x="130" y="91" width="20" height="28" rx="10" fill="#F0E5FF" stroke="#CC99FF" stroke-width="2"/>
  <rect x="124" y="108" width="32" height="18" rx="5" fill="#F0E5FF" stroke="#CC99FF" stroke-width="2"/>
  
  <!-- Connection lines representing unity -->
  <path d="M78 100 L86 95" stroke="#FFB3D9" stroke-width="2"/>
  <path d="M114 95 L130 105" stroke="#FFB3D9" stroke-width="2"/>
  
  <!-- Diversity symbols -->
  <circle cx="50" cy="150" r="8" fill="#FFE5E5" stroke="#FF9999" stroke-width="2"/>
  <rect x="80" y="142" width="16" height="16" fill="#E5F3FF" stroke="#99CCFF" stroke-width="2"/>
  <polygon points="130,142 138,150 130,158 122,150" fill="#F0E5FF" stroke="#CC99FF" stroke-width="2"/>
  <polygon points="150,145 158,152 150,159 142,152" fill="#E5FFE5" stroke="#99FF99" stroke-width="2"/>
  
  <!-- Unity circle encompassing all -->
  <circle cx="100" cy="100" r="85" fill="none" stroke="#FFD9CC" stroke-width="1" stroke-dasharray="5,3"/>
  
</svg>
