<svg width="200" height="200" viewBox="0 0 200 200" fill="none" xmlns="http://www.w3.org/2000/svg">
  <!-- Transparency glass/window -->
  <rect x="60" y="50" width="80" height="60" rx="4" fill="none" stroke="#2C3E50" stroke-width="3"/>
  
  <!-- Glass grid representing clarity -->
  <line x1="100" y1="50" x2="100" y2="110" stroke="#BDC3C7" stroke-width="1"/>
  <line x1="60" y1="80" x2="140" y2="80" stroke="#BDC3C7" stroke-width="1"/>
  
  <!-- Clear view through glass -->
  <circle cx="85" cy="70" r="6" fill="none" stroke="#34495E" stroke-width="2"/>
  <circle cx="115" cy="90" r="4" fill="none" stroke="#7F8C8D" stroke-width="2"/>
  
  <!-- Magnifying glass for clarity -->
  <circle cx="150" cy="60" r="12" fill="none" stroke="#2C3E50" stroke-width="3"/>
  <line x1="160" y1="70" x2="170" y2="80" stroke="#2C3E50" stroke-width="3"/>
  
  <!-- Information flow lines -->
  <path d="M40 130 L80 130" stroke="#34495E" stroke-width="2"/>
  <path d="M40 140 L90 140" stroke="#7F8C8D" stroke-width="2"/>
  <path d="M40 150 L85 150" stroke="#95A5A6" stroke-width="2"/>
  
  <path d="M120 130 L160 130" stroke="#34495E" stroke-width="2"/>
  <path d="M110 140 L160 140" stroke="#7F8C8D" stroke-width="2"/>
  <path d="M115 150 L160 150" stroke="#95A5A6" stroke-width="2"/>
  
  <!-- Open book representing open communication -->
  <path d="M70 160 Q100 150 130 160 Q100 170 70 160" fill="none" stroke="#2C3E50" stroke-width="2"/>
  <line x1="100" y1="155" x2="100" y2="165" stroke="#34495E" stroke-width="1"/>
  
  <!-- Communication bubbles -->
  <circle cx="50" cy="40" r="8" fill="none" stroke="#7F8C8D" stroke-width="2"/>
  <circle cx="45" cy="35" r="3" fill="#BDC3C7"/>
  <circle cx="50" cy="35" r="2" fill="#95A5A6"/>
  <circle cx="55" cy="35" r="1" fill="#7F8C8D"/>
  
  <circle cx="150" cy="40" r="8" fill="none" stroke="#7F8C8D" stroke-width="2"/>
  <circle cx="145" cy="35" r="3" fill="#BDC3C7"/>
  <circle cx="150" cy="35" r="2" fill="#95A5A6"/>
  <circle cx="155" cy="35" r="1" fill="#7F8C8D"/>
  
</svg>
